<svg width="14" height="16" viewBox="0 0 14 16" fill="none" xmlns="http://www.w3.org/2000/svg">
<path fill-rule="evenodd" clip-rule="evenodd" d="M7 1.5625C4.00839 1.5625 1.5625 4.04431 1.5625 7.13163C1.5625 8.6884 2.18517 10.4125 3.20406 11.7438C4.22558 13.0787 5.57762 13.9375 7 13.9375C8.4224 13.9375 9.7744 13.0787 10.796 11.7438C11.8148 10.4125 12.4375 8.6884 12.4375 7.13163C12.4375 4.04431 9.9916 1.5625 7 1.5625ZM0.4375 7.13163C0.4375 3.44613 3.36419 0.4375 7 0.4375C10.6358 0.4375 13.5625 3.44613 13.5625 7.13163C13.5625 8.9613 12.8421 10.9214 11.6894 12.4275C10.5393 13.9303 8.8913 15.0625 7 15.0625C5.10866 15.0625 3.46071 13.9303 2.31065 12.4275C1.15797 10.9214 0.4375 8.9613 0.4375 7.13163Z" fill="#405FF2"/>
</svg>
