<svg width="17" height="16" viewBox="0 0 17 16" fill="none" xmlns="http://www.w3.org/2000/svg">
<path fill-rule="evenodd" clip-rule="evenodd" d="M5.14177 11.0802C8.67655 14.6157 11.03 15.5427 12.5165 15.5427C13.25 15.5427 13.7735 15.317 14.1223 15.0665C14.138 15.0575 15.752 14.0705 16.0348 12.5765C16.1683 11.8752 15.9733 11.1815 15.4723 10.5695C13.4083 8.06374 12.3568 8.29774 11.1958 8.8625C10.4825 9.212 9.91933 9.48351 8.32855 7.89425C6.7387 6.30373 7.01296 5.7404 7.36015 5.02727C7.92565 3.86627 8.1583 2.81451 5.65177 0.749015C5.04127 0.250265 4.35202 0.0552649 3.65152 0.186515C2.17927 0.461765 1.18777 2.04951 1.18777 2.04951C0.398764 3.15726 -0.136733 5.80253 5.14177 11.0802ZM3.88102 1.28751C3.94702 1.27701 4.01227 1.27101 4.07677 1.27101C4.37077 1.27101 4.65427 1.38576 4.93702 1.61826C6.95825 3.28325 6.70252 3.80826 6.34852 4.535C5.81677 5.62775 5.53852 6.69424 7.5328 8.68999C9.5293 10.6857 10.5965 10.4075 11.6878 9.8742L11.6896 9.8733C12.4154 9.5205 12.9402 9.2655 14.603 11.2842C14.8873 11.6307 14.996 11.9772 14.9345 12.3425C14.7928 13.1825 13.8163 13.9347 13.5208 14.1177C12.4625 14.8722 9.91483 14.2625 5.93677 10.2852C1.96027 6.30799 1.34977 3.76026 2.13127 2.66151C2.28727 2.40726 3.04252 1.42926 3.88102 1.28751Z" fill="#405FF2"/>
</svg>
